<svg width="250" height="100" viewBox="0 0 250 100" fill="none" xmlns="http://www.w3.org/2000/svg">
<rect x="10.0889" y="3.16806" width="229.018" height="81.0297" rx="1" transform="rotate(2.93858 10.0889 3.16806)" fill="#AAEAAA"/>
<mask id="path-2-inside-1" fill="white">
<rect x="20" y="18.0537" width="197.131" height="74.5104" rx="1" transform="rotate(-2.92336 20 18.0537)"/>
</mask>
<rect x="20" y="18.0537" width="197.131" height="74.5104" rx="1" transform="rotate(-2.92336 20 18.0537)" fill="#10C3E7" stroke="#F79CD2" stroke-width="10" mask="url(#path-2-inside-1)"/>
<path d="M45.792 31H47.328C49.856 31 51.712 31.592 52.896 32.776C54.08 33.928 54.672 35.64 54.672 37.912C54.672 39.224 54.288 40.488 53.52 41.704C52.752 42.888 51.824 43.688 50.736 44.104C53.488 44.552 55.616 45.704 57.12 47.56C58.624 49.416 59.376 51.848 59.376 54.856C59.376 57.256 58.848 59.384 57.792 61.24C56.736 63.064 55.28 64.488 53.424 65.512C51.6 66.504 49.568 67 47.328 67H45.792V31ZM47.712 43.672C49.248 43.672 50.544 43.112 51.6 41.992C52.656 40.872 53.184 39.496 53.184 37.864C53.184 36.04 52.736 34.664 51.84 33.736C50.976 32.808 49.6 32.344 47.712 32.344H47.328V43.672H47.712ZM47.712 65.656C49.6 65.656 51.312 65.208 52.848 64.312C54.384 63.384 55.6 62.104 56.496 60.472C57.392 58.84 57.84 57 57.84 54.952C57.84 51.656 56.96 49.176 55.2 47.512C53.472 45.816 50.976 44.968 47.712 44.968H47.328V65.656H47.712ZM65.3914 31H66.9754V67H65.3914V31ZM74.8076 31H76.3436C78.8716 31 80.7276 31.592 81.9116 32.776C83.0956 33.928 83.6876 35.64 83.6876 37.912C83.6876 39.224 83.3036 40.488 82.5356 41.704C81.7676 42.888 80.8396 43.688 79.7516 44.104C82.5036 44.552 84.6316 45.704 86.1356 47.56C87.6396 49.416 88.3916 51.848 88.3916 54.856C88.3916 57.256 87.8636 59.384 86.8076 61.24C85.7516 63.064 84.2956 64.488 82.4396 65.512C80.6156 66.504 78.5836 67 76.3436 67H74.8076V31ZM76.7276 43.672C78.2636 43.672 79.5596 43.112 80.6156 41.992C81.6716 40.872 82.1996 39.496 82.1996 37.864C82.1996 36.04 81.7516 34.664 80.8556 33.736C79.9916 32.808 78.6156 32.344 76.7276 32.344H76.3436V43.672H76.7276ZM76.7276 65.656C78.6156 65.656 80.3276 65.208 81.8636 64.312C83.3996 63.384 84.6156 62.104 85.5116 60.472C86.4076 58.84 86.8556 57 86.8556 54.952C86.8556 51.656 85.9756 49.176 84.2156 47.512C82.4876 45.816 79.9916 44.968 76.7276 44.968H76.3436V65.656H76.7276ZM111.82 67.96C108.46 67.96 105.34 67.08 102.46 65.32C99.5798 63.56 97.2918 61.224 95.5958 58.312C93.9318 55.368 93.0998 52.216 93.0998 48.856C93.0998 45.528 93.9478 42.424 95.6438 39.544C97.3398 36.632 99.6278 34.328 102.508 32.632C105.388 30.904 108.508 30.04 111.868 30.04C115.26 30.04 118.38 30.888 121.228 32.584C124.076 34.28 126.332 36.584 127.996 39.496C129.692 42.376 130.54 45.496 130.54 48.856C130.54 52.312 129.692 55.512 127.996 58.456C126.332 61.368 124.06 63.688 121.18 65.416C118.332 67.112 115.212 67.96 111.82 67.96ZM111.82 66.568C114.892 66.568 117.74 65.784 120.364 64.216C122.988 62.616 125.068 60.472 126.604 57.784C128.172 55.064 128.956 52.12 128.956 48.952C128.956 45.816 128.188 42.904 126.652 40.216C125.116 37.528 123.036 35.4 120.412 33.832C117.788 32.232 114.94 31.432 111.868 31.432C108.764 31.432 105.9 32.232 103.276 33.832C100.652 35.4 98.5558 37.528 96.9878 40.216C95.4518 42.904 94.6838 45.816 94.6838 48.952C94.6838 52.12 95.4518 55.064 96.9878 57.784C98.5558 60.472 100.652 62.616 103.276 64.216C105.9 65.784 108.748 66.568 111.82 66.568Z" fill="#202026"/>
<path d="M153.168 67.576C150.704 67.576 148.416 66.968 146.304 65.752C144.224 64.536 142.56 62.904 141.312 60.856C140.096 58.808 139.488 56.568 139.488 54.136C139.488 50.52 141.136 46.824 144.432 43.048L154.944 31H156.768L146.688 42.28C147.52 41.704 148.576 41.24 149.856 40.888C151.136 40.536 152.368 40.36 153.552 40.36C155.856 40.36 158.016 40.984 160.032 42.232C162.08 43.48 163.696 45.16 164.88 47.272C166.096 49.384 166.704 51.656 166.704 54.088C166.704 56.52 166.096 58.776 164.88 60.856C163.664 62.904 162.016 64.536 159.936 65.752C157.888 66.968 155.632 67.576 153.168 67.576ZM153.168 66.232C155.344 66.232 157.344 65.688 159.168 64.6C160.992 63.512 162.432 62.04 163.488 60.184C164.576 58.296 165.12 56.248 165.12 54.04C165.12 51.832 164.576 49.784 163.488 47.896C162.4 46.008 160.944 44.52 159.12 43.432C157.296 42.312 155.312 41.752 153.168 41.752C151.024 41.752 149.024 42.312 147.168 43.432C145.312 44.552 143.824 46.056 142.704 47.944C141.616 49.832 141.072 51.864 141.072 54.04C141.072 56.248 141.616 58.296 142.704 60.184C143.792 62.04 145.264 63.512 147.12 64.6C148.976 65.688 150.992 66.232 153.168 66.232ZM191.705 61.24V62.632H187.529V67H185.945V62.632H168.281L187.529 30.52V61.24H191.705ZM185.945 61.24V36.04L170.681 61.24H185.945Z" fill="#EFF19B"/>
</svg>
